; NON-PLATED HOLES START AT T1
; THROUGH (PLATED) HOLES START AT T100
M48
INCH
T100C0.035000
T101C0.030000
T102C0.100000
T103C0.042000
T104C0.038000
T105C0.036000
%
T100
X024964Y013851
X030714Y013851
X030714Y010851
X013964Y002601
X013964Y005601
X035714Y013101
X024964Y010851
X030714Y016851
X024964Y016851
X035714Y010101
T101
X004964Y015601
X012964Y011601
X004964Y010601
X009964Y012601
X017964Y014601
X009964Y014601
X017964Y015601
X012964Y015601
X004964Y009601
X017964Y016601
X017964Y009601
X012964Y014601
X017964Y011601
X009964Y011601
X004964Y014601
X009964Y016601
X017964Y010601
X012964Y016601
X009964Y010601
X009964Y013601
X009964Y015601
X009964Y009601
X012964Y010601
X004964Y012601
X004964Y016601
X012964Y009601
X017964Y013601
X017964Y012601
X004964Y013601
X012964Y012601
X012964Y013601
X004964Y011601
T102
X034814Y003151
X034814Y005551
X036714Y004351
T103
X028714Y016101
X028964Y014581
X033464Y016101
X027714Y016101
X026714Y016101
X028964Y011601
X034714Y011601
X034714Y014581
X034464Y016101
X032464Y016101
T104
X033464Y012851
X003214Y014601
X001214Y014601
X022214Y011601
X014214Y013601
X021214Y015601
X019214Y013601
X001214Y015601
X001214Y011351
X008714Y015101
X008714Y014101
X001214Y010351
X021214Y005351
X003214Y010351
X023214Y011601
X032464Y012851
X003214Y016601
X011214Y013601
X032464Y004351
X014214Y014601
X019214Y014601
X022214Y015601
X026714Y012851
X027714Y012851
X011214Y012601
X032464Y005351
X016714Y015101
X019214Y012601
X006214Y013601
X016714Y014101
X006214Y015601
X023214Y015601
X006214Y014601
X021214Y004351
X011214Y014601
X014214Y015601
X003214Y015601
X011214Y011601
X003214Y011351
X019214Y011601
X021214Y011601
X001214Y016601
T105
X014964Y007351
X007964Y007351
X004964Y001351
X002964Y007351
X014964Y001351
X005964Y001351
X013964Y007351
X003964Y007351
X011964Y001351
X009964Y001351
X011964Y007351
X003964Y001351
X007964Y001351
X006964Y007351
X013964Y001351
X012964Y001351
X004964Y007351
X002964Y001351
X008964Y007351
X015964Y001351
X005964Y007351
X012964Y007351
X016964Y001351
X010964Y007351
X016964Y007351
X006964Y001351
X010964Y001351
X008964Y001351
X009964Y007351
X015964Y007351
T00
M30
