; NON-PLATED HOLES START AT T1
; THROUGH (PLATED) HOLES START AT T100
M48
INCH
T1C0.129921
T100C0.035000
T101C0.030000
T102C0.038000
T103C0.029000
T104C0.035433
%
T1
X001035Y015983
X010535Y015983
X001035Y000983
X010535Y000983
T100
X008535Y006983
X007035Y007983
X006035Y012983
X004035Y005983
X004035Y006983
X007035Y008983
X008535Y010983
X005035Y003983
X004035Y008983
X007035Y005983
X002535Y003983
X002035Y012983
X007035Y006983
X008535Y009983
X008535Y008983
X002535Y006983
X004035Y007983
X008035Y003983
T101
X004535Y010983
X003533Y010983
T102
X004035Y014983
X007035Y001983
X007035Y014983
X005035Y014983
X008035Y014983
X008035Y001983
T103
X008475Y012983
X009535Y012983
X007415Y012983
T104
X005535Y001983
X002535Y001983
T00
M30
